<?xml version="1.0" standalone="no" ?>
<!DOCTYPE svg PUBLIC "-//W3C//DTD SVG 1.1//EN" "http://www.w3.org/Graphics/SVG/1.1/DTD/svg11.dtd">
<svg width="600" height="600" xmlns="http://www.w3.org/2000/svg" version="1.1" >
<path d="M169.939 163.634 L150 150 L189.936 146.798 Z" fill="none" stroke="green" stroke-width="1" /><path d="M188.724 178.817 L189.936 146.798 L229.968 145.196 Z" fill="none" stroke="green" stroke-width="1" /><path d="M188.724 178.817 L169.939 163.634 L189.936 146.798 Z" fill="none" stroke="green" stroke-width="1" /><path d="M250.159 206.044 L222.362 213.436 L206.236 195.454 Z" fill="none" stroke="green" stroke-width="1" /><path d="M188.724 178.817 L229.968 145.196 L206.236 195.454 Z" fill="none" stroke="green" stroke-width="1" /><path d="M206.236 195.454 L229.968 145.196 L250.159 206.044 Z" fill="none" stroke="green" stroke-width="1" /><path d="M293.222 165.806 L270.032 145.196 L310.064 146.798 Z" fill="none" stroke="green" stroke-width="1" /><path d="M350 150 L320.658 154.48 L310.064 146.798 Z" fill="none" stroke="green" stroke-width="1" /><path d="M293.222 165.806 L310.064 146.798 L320.658 154.48 Z" fill="none" stroke="green" stroke-width="1" /><path d="M237 232.65 L222.362 213.436 L250.159 206.044 Z" fill="none" stroke="green" stroke-width="1" /><path d="M293.222 165.806 L269.264 183.329 L270.032 145.196 Z" fill="none" stroke="green" stroke-width="1" /><path d="M229.968 145.196 L269.264 183.329 L250.159 206.044 Z" fill="none" stroke="green" stroke-width="1" /><path d="M229.968 145.196 L270.032 145.196 L269.264 183.329 Z" fill="none" stroke="green" stroke-width="1" /></svg>