<?xml version="1.0" standalone="no" ?>
<!DOCTYPE svg PUBLIC "-//W3C//DTD SVG 1.1//EN" "http://www.w3.org/Graphics/SVG/1.1/DTD/svg11.dtd">
<svg width="300" height="300" xmlns="http://www.w3.org/2000/svg" version="1.1" >
<path d="M75 75 L84.387 70.4656 L97.448 91.0455 Z" fill="none" stroke="green" stroke-width="1" /><path d="M97.448 91.0455 L84.387 70.4656 L94.1798 66.8909 Z" fill="none" stroke="green" stroke-width="1" /><path d="M112.003 80.5253 L104.28 64.3118 L114.588 62.7539 Z" fill="none" stroke="green" stroke-width="1" /><path d="M97.6849 152.315 L108.304 118.637 L140.265 130.893 Z" fill="none" stroke="green" stroke-width="1" /><path d="M94.1798 66.8909 L104.28 64.3118 L112.003 80.5253 Z" fill="none" stroke="green" stroke-width="1" /><path d="M129.375 79.1051 L112.003 80.5253 L114.588 62.7539 Z" fill="none" stroke="green" stroke-width="1" /><path d="M108.304 118.637 L97.448 91.0455 L112.003 80.5253 Z" fill="none" stroke="green" stroke-width="1" /><path d="M140.265 130.893 L167.443 125 L167.748 135.145 Z" fill="none" stroke="green" stroke-width="1" /><path d="M135.412 62.7539 L129.375 79.1051 L125 62.2329 Z" fill="none" stroke="green" stroke-width="1" /><path d="M74.5125 108.386 L73.0814 91.6684 L97.448 91.0455 Z" fill="none" stroke="green" stroke-width="1" /><path d="M150.251 108.18 L168.66 104.746 L167.748 114.854 Z" fill="none" stroke="green" stroke-width="1" /><path d="M74.5125 108.386 L108.304 118.637 L79.2363 124.485 Z" fill="none" stroke="green" stroke-width="1" /><path d="M97.448 91.0455 L73.0814 91.6684 L75 75 Z" fill="none" stroke="green" stroke-width="1" /><path d="M74.5125 108.386 L97.448 91.0455 L108.304 118.637 Z" fill="none" stroke="green" stroke-width="1" /><path d="M108.304 118.637 L97.6849 152.315 L87.0644 139.326 Z" fill="none" stroke="green" stroke-width="1" /><path d="M97.6849 152.315 L140.265 130.893 L110.674 162.936 Z" fill="none" stroke="green" stroke-width="1" /><path d="M125.515 170.764 L147.544 153.579 L141.614 175.488 Z" fill="none" stroke="green" stroke-width="1" /><path d="M129.375 79.1051 L108.304 118.637 L112.003 80.5253 Z" fill="none" stroke="green" stroke-width="1" /><path d="M140.265 130.893 L147.544 153.579 L110.674 162.936 Z" fill="none" stroke="green" stroke-width="1" /><path d="M144.444 90.3758 L170.177 94.7094 L150.251 108.18 Z" fill="none" stroke="green" stroke-width="1" /><path d="M125.515 170.764 L110.674 162.936 L147.544 153.579 Z" fill="none" stroke="green" stroke-width="1" /><path d="M94.1798 66.8909 L112.003 80.5253 L97.448 91.0455 Z" fill="none" stroke="green" stroke-width="1" /><path d="M145.72 64.3118 L144.444 90.3758 L129.375 79.1051 Z" fill="none" stroke="green" stroke-width="1" /><path d="M165.613 70.4656 L144.444 90.3758 L155.82 66.8909 Z" fill="none" stroke="green" stroke-width="1" /><path d="M145.72 64.3118 L129.375 79.1051 L135.412 62.7539 Z" fill="none" stroke="green" stroke-width="1" /><path d="M140.265 130.893 L108.304 118.637 L150.251 108.18 Z" fill="none" stroke="green" stroke-width="1" /><path d="M144.444 90.3758 L165.613 70.4656 L172.293 84.7823 Z" fill="none" stroke="green" stroke-width="1" /><path d="M168.66 104.746 L172.293 84.7823 L167.443 125 Z" fill="none" stroke="green" stroke-width="1" /><path d="M175 75 L172.293 84.7823 L165.613 70.4656 Z" fill="none" stroke="green" stroke-width="1" /><path d="M168.66 104.746 L170.177 94.7094 L172.293 84.7823 Z" fill="none" stroke="green" stroke-width="1" /><path d="M150.251 108.18 L170.177 94.7094 L168.66 104.746 Z" fill="none" stroke="green" stroke-width="1" /><path d="M172.293 84.7823 L175 75 L175 175 Z" fill="none" stroke="green" stroke-width="1" /><path d="M170.177 94.7094 L144.444 90.3758 L172.293 84.7823 Z" fill="none" stroke="green" stroke-width="1" /><path d="M167.443 125 L150.251 108.18 L167.748 114.854 Z" fill="none" stroke="green" stroke-width="1" /><path d="M167.443 125 L140.265 130.893 L150.251 108.18 Z" fill="none" stroke="green" stroke-width="1" /><path d="M167.748 135.145 L167.443 125 L168.66 145.254 Z" fill="none" stroke="green" stroke-width="1" /><path d="M147.544 153.579 L167.748 135.145 L168.66 145.254 Z" fill="none" stroke="green" stroke-width="1" /><path d="M158.332 176.919 L147.544 153.579 L170.177 155.291 Z" fill="none" stroke="green" stroke-width="1" /><path d="M170.177 155.291 L147.544 153.579 L168.66 145.254 Z" fill="none" stroke="green" stroke-width="1" /><path d="M167.748 114.854 L168.66 104.746 L167.443 125 Z" fill="none" stroke="green" stroke-width="1" /><path d="M87.0644 139.326 L79.2363 124.485 L108.304 118.637 Z" fill="none" stroke="green" stroke-width="1" /><path d="M158.332 176.919 L141.614 175.488 L147.544 153.579 Z" fill="none" stroke="green" stroke-width="1" /><path d="M168.66 145.254 L167.443 125 L170.177 155.291 Z" fill="none" stroke="green" stroke-width="1" /><path d="M172.293 165.218 L175 175 L158.332 176.919 Z" fill="none" stroke="green" stroke-width="1" /><path d="M175 175 L172.293 165.218 L170.177 155.291 Z" fill="none" stroke="green" stroke-width="1" /><path d="M167.443 125 L175 175 L170.177 155.291 Z" fill="none" stroke="green" stroke-width="1" /><path d="M170.177 155.291 L172.293 165.218 L158.332 176.919 Z" fill="none" stroke="green" stroke-width="1" /><path d="M172.293 84.7823 L175 175 L167.443 125 Z" fill="none" stroke="green" stroke-width="1" /><path d="M129.375 79.1051 L114.588 62.7539 L125 62.2329 Z" fill="none" stroke="green" stroke-width="1" /><path d="M144.444 90.3758 L150.251 108.18 L108.304 118.637 Z" fill="none" stroke="green" stroke-width="1" /><path d="M145.72 64.3118 L155.82 66.8909 L144.444 90.3758 Z" fill="none" stroke="green" stroke-width="1" /><path d="M108.304 118.637 L129.375 79.1051 L144.444 90.3758 Z" fill="none" stroke="green" stroke-width="1" /><path d="M167.748 135.145 L147.544 153.579 L140.265 130.893 Z" fill="none" stroke="green" stroke-width="1" /></svg>